# This file uses meters as units for non-parametric coordinates.

mtllib objfile.mtl
v -1.824398 -33.617352 5.093132
v -0.000003 88.365646 10.243605
v -0.000003 -33.617352 -5.435928
v -0.000003 76.653915 -7.080538
v 1.824391 -33.617352 5.093132
v -1.984318 -33.617352 -1.929775
v 1.984311 -33.617352 -1.929775
v -1.824398 42.514717 6.994520
v -1.550260 54.946983 7.308447
v -1.787670 46.567806 6.961504
v -1.687329 51.118328 7.076408
v -0.000003 56.493671 -10.760848
v -0.000003 42.617329 -11.217261
v -0.000003 51.905422 -11.320213
v -0.000003 46.826328 -11.487273
v 1.824391 42.514717 6.994520
v 1.550253 54.946983 7.308447
v 1.787664 46.567806 6.961503
v 1.687322 51.118328 7.076408
v 1.984311 42.515503 -3.163430
v 1.686144 54.946983 -1.544389
v 1.944364 46.568199 -3.116895
v 1.835227 51.118435 -2.524285
v -1.686150 54.946983 -1.544389
v -1.984318 42.515503 -3.163430
v -1.835234 51.118435 -2.524285
v -1.944371 46.568199 -3.116894
v -0.000003 18.295267 -7.789708
v -0.000003 -3.255350 -6.124450
v -0.000003 11.533571 -7.078714
v -0.000003 3.645496 -6.627951
v 1.824391 -3.213982 7.369016
v 1.824391 18.648375 7.745003
v 1.824391 3.893478 7.795416
v 1.824391 11.538295 7.802931
v 1.984311 -3.213491 -1.055127
v 1.984311 18.646519 -1.459897
v 1.984311 3.893333 -1.161209
v 1.984311 11.537328 -1.254627
v -1.984318 18.646519 -1.459897
v -1.984318 -3.213491 -1.055127
v -1.984318 11.537328 -1.254627
v -1.984318 3.893333 -1.161209
v -1.824398 -3.213982 7.369017
v -1.824398 18.648375 7.745003
v -1.824398 3.893478 7.795417
v -1.824398 11.538295 7.802930
v 5.120962 -36.171322 -7.305582
v 1.956031 -36.171322 -11.820681
v -1.956039 -36.171322 -11.820678
v -5.120969 -36.171322 -7.305580
v -6.329865 -36.171322 0.000003
v -5.120968 -36.171322 7.305585
v -1.956038 -36.171322 11.820680
v 1.956031 -36.171322 11.820680
v 5.120961 -36.171322 7.305583
v 6.329857 -36.171322 0.000002
v 5.120962 -33.617352 -7.305582
v 1.956031 -33.617352 -11.820681
v -1.956039 -33.617352 -11.820678
v -5.120969 -33.617352 -7.305580
v -6.329865 -33.617352 0.000003
v -5.120968 -33.617352 7.305585
v -1.956038 -33.617352 11.820680
v 1.956031 -33.617352 11.820680
v 5.120961 -33.617352 7.305583
v 6.329857 -33.617352 0.000002
v -0.000003 -33.617352 0.000002
v 3.808841 -36.733791 -3.919740
v 1.454846 -36.733791 -6.342276
v -1.454853 -36.733791 -6.342274
v -3.808849 -36.733791 -3.919740
v -4.707994 -36.733791 0.000002
v -3.808848 -36.733791 3.919743
v -1.454853 -36.733791 6.342278
v 1.454846 -36.733791 6.342277
v 3.808841 -36.733791 3.919743
v 4.707987 -36.733791 0.000002
v 2.281286 -39.137737 -2.374821
v 0.871372 -39.137737 -3.842541
v -0.871379 -39.137737 -3.842541
v -2.281294 -39.137737 -2.374821
v -2.819833 -39.137737 0.000002
v -2.281294 -39.137737 2.374824
v -0.871379 -39.137737 3.842544
v 0.871372 -39.137737 3.842544
v 2.281286 -39.137737 2.374823
v 2.819825 -39.137737 0.000001
v 1.572991 -78.315781 -1.486523
v 0.600827 -78.315781 -2.405246
v -0.600835 -78.315781 -2.405246
v -1.572999 -78.315781 -1.486523
v -1.944332 -78.315781 0.000002
v -1.572999 -78.315781 1.486526
v -0.600834 -78.315781 2.405249
v 0.600827 -78.315781 2.405248
v 1.572991 -78.315781 1.486526
v 1.944325 -78.315781 0.000002
v 2.252881 -79.948914 -2.345251
v 0.860522 -79.948914 -3.794697
v -0.860530 -79.948914 -3.794697
v -2.252889 -79.948914 -2.345251
v -2.784723 -79.948914 0.000001
v -2.252889 -79.948914 2.345254
v -0.860529 -79.948914 3.794700
v 0.860522 -79.948914 3.794699
v 2.252881 -79.948914 2.345253
v 2.784715 -79.948914 0.000001
v 1.469159 -88.365631 -1.111739
v 0.561166 -88.365631 -1.798832
v -0.561174 -88.365631 -1.798832
v -1.469166 -88.365631 -1.111739
v -1.815989 -88.365631 0.000001
v -1.469166 -88.365631 1.111742
v -0.561174 -88.365631 1.798835
v 0.561167 -88.365631 1.798835
v 1.469159 -88.365631 1.111741
v 1.815981 -88.365631 0.000001
vt 0.966335 0.452554
vt 0.991513 0.391009
vt 0.966335 0.391009
vt 0.991513 0.391009
vt 0.991513 0.452554
vt 0.966335 0.333518
vt 0.966335 0.271973
vt 0.991513 0.271973
vt 0.991513 0.333518
vt 0.966335 0.190480
vt 0.991513 0.190480
vt 0.966335 0.743039
vt 0.991513 0.743039
vt 0.966335 0.677085
vt 0.991513 0.677084
vt 0.966335 0.108988
vt 0.991513 0.108988
vt 0.966335 0.047443
vt 0.991513 0.047443
vt 0.488388 0.487491
vt 0.063172 0.150819
vt 0.009073 0.116473
vt 0.150705 0.095246
vt 0.009073 0.074019
vt 0.063172 0.039674
vt 0.150704 0.026555
vt 0.238237 0.039674
vt 0.292336 0.074019
vt 0.292336 0.116473
vt 0.238238 0.150819
vt 0.150705 0.163938
vt 0.237973 0.476041
vt 0.284109 0.417812
vt 0.264982 0.374146
vt 0.230668 0.405389
vt 0.180947 0.476041
vt 0.188253 0.405389
vt 0.134812 0.417812
vt 0.153939 0.374146
vt 0.117189 0.323596
vt 0.140831 0.323596
vt 0.134812 0.229379
vt 0.153938 0.273045
vt 0.180947 0.171151
vt 0.188253 0.241803
vt 0.237973 0.171151
vt 0.230668 0.241803
vt 0.284109 0.229379
vt 0.264982 0.273045
vt 0.301731 0.323596
vt 0.278089 0.323596
vt 0.242715 0.354222
vt 0.222162 0.373151
vt 0.196758 0.373151
vt 0.176206 0.354222
vt 0.168355 0.323596
vt 0.176206 0.292969
vt 0.196758 0.274040
vt 0.222162 0.274040
vt 0.242715 0.292969
vt 0.250565 0.323596
vt 0.094057 0.255146
vt 0.087934 0.237604
vt 0.110854 0.226006
vt 0.126884 0.236847
vt 0.053481 0.255146
vt 0.059604 0.237604
vt 0.036684 0.226006
vt 0.020655 0.236847
vt 0.027930 0.207239
vt 0.008116 0.207239
vt 0.053481 0.159332
vt 0.059604 0.176873
vt 0.036684 0.188472
vt 0.020655 0.177630
vt 0.094057 0.159332
vt 0.087934 0.176873
vt 0.110854 0.188472
vt 0.126883 0.177630
vt 0.119609 0.207239
vt 0.139422 0.207238
vt 0.086999 0.229948
vt 0.039132 0.221274
vt 0.060539 0.229948
vt 0.030955 0.207239
vt 0.108406 0.193203
vt 0.039132 0.193203
vt 0.108406 0.221274
vt 0.060539 0.184529
vt 0.086999 0.184529
vt 0.116583 0.207239
vt 0.890282 0.910599
vt 0.978573 0.911764
vt 0.940998 0.633365
vt 0.871607 0.637385
vt 0.573395 0.910599
vt 0.684753 0.910590
vt 0.692980 0.637406
vt 0.592070 0.637385
vt 0.778924 0.910590
vt 0.770697 0.637406
vt 0.922743 0.386688
vt 0.596507 0.387167
vt 0.586919 0.039153
vt 0.915195 0.039153
vt 0.774819 0.387162
vt 0.867170 0.387167
vt 0.876758 0.039153
vt 0.799769 0.039153
vt 0.688858 0.387162
vt 0.663908 0.039153
vt 0.469536 0.843544
vt 0.279618 0.977601
vt 0.127456 0.595078
vt 0.509882 0.612782
vt 0.408845 0.595078
vt 0.224506 0.595078
vt 0.779286 0.956983
vt 0.889772 0.956988
vt 0.314339 0.551254
vt 0.419587 0.551255
vt 0.311795 0.595078
vt 0.110217 0.499171
vt 0.220702 0.499167
vt 0.116713 0.551255
vt 0.221962 0.551254
vt 0.981533 0.959942
vt 0.516014 0.560263
vt 0.770144 0.468516
vt 0.868333 0.468514
vt 0.770062 0.556022
vt 0.869356 0.556011
vt 0.595344 0.468514
vt 0.693533 0.468516
vt 0.594320 0.556011
vt 0.693615 0.556022
vt 0.928262 0.465678
vt 0.933204 0.555968
vt 0.573395 0.910599
vt 0.684753 0.910590
vt 0.692980 0.637406
vt 0.592070 0.637385
vt 0.540934 0.386688
vt 0.596507 0.387167
vt 0.586919 0.039153
vt 0.548482 0.039153
vt 0.485104 0.911764
vt 0.573395 0.910599
vt 0.592070 0.637385
vt 0.522679 0.633365
vt 0.596507 0.387167
vt 0.688858 0.387162
vt 0.066765 0.843544
vt 0.256683 0.977601
vt 0.127456 0.595078
vt 0.026419 0.612782
vt 0.256683 0.977601
vt 0.224506 0.595078
vt 0.127456 0.595078
vt 0.573395 0.910599
vt 0.573905 0.956988
vt 0.684391 0.956983
vt 0.110217 0.499171
vt 0.116713 0.551255
vt 0.221962 0.551254
vt 0.116713 0.551255
vt 0.127456 0.595078
vt 0.485104 0.911764
vt 0.482144 0.959942
vt 0.573905 0.956988
vt 0.018456 0.502126
vt 0.020287 0.560263
vt 0.116713 0.551255
vt 0.020287 0.560263
vt 0.026419 0.612782
vt 0.596507 0.387167
vt 0.595344 0.468514
vt 0.693533 0.468516
vt 0.595344 0.468514
vt 0.594320 0.556011
vt 0.693615 0.556022
vt 0.594320 0.556011
vt 0.592070 0.637385
vt 0.540934 0.386688
vt 0.535415 0.465678
vt 0.595344 0.468514
vt 0.535415 0.465678
vt 0.530473 0.555968
vt 0.594320 0.556011
vt 0.530473 0.555968
vt 0.522679 0.633365
vt 0.753395 0.386688
vt 0.709978 0.386688
vt 0.709978 0.039153
vt 0.753395 0.039153
vt 0.753395 0.911764
vt 0.709978 0.911764
vt 0.709978 0.633365
vt 0.753395 0.633365
vt 0.267999 0.977601
vt 0.249552 0.612782
vt 0.286445 0.612782
vt 0.752958 0.959942
vt 0.710415 0.959942
vt 0.288076 0.560263
vt 0.247921 0.560263
vt 0.753395 0.465678
vt 0.709978 0.465678
vt 0.753395 0.555968
vt 0.709978 0.555968
vt 0.486711 0.032115
vt 0.304655 0.487491
vt 0.305411 0.032115
vt 0.323474 0.487491
vt 0.325151 0.032115
vt 0.351424 0.487491
vt 0.351424 0.032115
vt 0.379375 0.487491
vt 0.377697 0.032115
vt 0.398193 0.487491
vt 0.397437 0.032115
vt 0.413669 0.487491
vt 0.414425 0.032115
vt 0.432487 0.487491
vt 0.434165 0.032115
vt 0.460438 0.487491
vt 0.460438 0.032115
vt 0.014459 0.474239
vt 0.112288 0.476994
vt 0.112288 0.383456
vt 0.014459 0.386212
vt 0.014459 0.365225
vt 0.112288 0.367980
vt 0.014459 0.343690
vt 0.112288 0.349162
vt 0.112288 0.293261
vt 0.014459 0.298733
vt 0.014459 0.452704
vt 0.112289 0.458176
vt 0.014459 0.430225
vt 0.112288 0.430225
vt 0.112288 0.402275
vt 0.014459 0.407747
vt 0.014459 0.321211
vt 0.112288 0.321211
vt 0.966335 0.391009
vt 0.966335 0.333518
vt 0.991513 0.333518
vt 0.522683 0.487491
vt 0.507207 0.487491
vt 0.506450 0.032115
vt 0.523439 0.032115
vt 0.014459 0.277198
vt 0.014459 0.256212
vt 0.112288 0.258966
vt 0.112288 0.274443
vt 0.966335 0.677084
vt 0.966335 0.615539
vt 0.991513 0.615539
vt 0.991513 0.677084
vt 0.966335 0.534047
vt 0.991513 0.534047
vt 0.966335 0.271973
vt 0.991513 0.271973
vt 0.966335 0.190480
vt 0.991513 0.190480
vt 0.966335 0.108988
vt 0.991513 0.108988
vt 0.249552 0.612782
vt 0.286445 0.612782
vt 0.279618 0.977601
vt 0.509882 0.612782
vt 0.408845 0.595078
vt 0.426084 0.499171
vt 0.315598 0.499167
vt 0.314339 0.551254
vt 0.419587 0.551255
vt 0.419587 0.551255
vt 0.311795 0.595078
vt 0.408845 0.595078
vt 0.246727 0.502126
vt 0.289270 0.502126
vt 0.288076 0.560263
vt 0.247921 0.560263
vt 0.517845 0.502126
vt 0.426084 0.499171
vt 0.419587 0.551255
vt 0.516014 0.560263
vt 0.408845 0.595078
vn -0.978052 -0.022060 -0.207191
vn -0.978052 -0.022060 -0.207191
vn -0.978052 -0.022060 -0.207191
vn -0.978052 -0.022060 -0.207191
vn 0.000000 -0.074647 0.997210
vn 0.000000 -0.074647 0.997210
vn 0.000000 -0.074647 0.997210
vn 0.000000 -0.074647 0.997210
vn 0.999525 -0.001582 -0.030772
vn 0.999525 -0.001582 -0.030772
vn 0.999525 -0.001582 -0.030772
vn 0.999525 -0.001582 -0.030772
vn -0.000000 0.031430 0.999506
vn -0.000000 0.031430 0.999506
vn -0.000000 0.031430 0.999506
vn -0.000000 0.031430 0.999506
vn -0.999525 -0.001582 -0.030772
vn -0.999525 -0.001582 -0.030772
vn -0.999525 -0.001582 -0.030772
vn -0.999525 -0.001582 -0.030772
vn 0.942088 0.001027 -0.335366
vn 0.942088 0.001027 -0.335366
vn 0.942088 0.001027 -0.335366
vn 0.942088 0.001027 -0.335366
vn -0.999254 0.001998 -0.038563
vn -0.999254 0.001998 -0.038563
vn -0.999254 0.001998 -0.038563
vn -0.999254 0.001998 -0.038563
vn 0.978052 -0.022060 -0.207191
vn 0.978052 -0.022060 -0.207191
vn 0.978052 -0.022060 -0.207191
vn 0.978052 -0.022060 -0.207191
vn 0.000000 -0.087493 0.996165
vn 0.000000 -0.087493 0.996165
vn 0.000000 -0.087493 0.996165
vn 0.999254 0.001998 -0.038563
vn 0.999254 0.001998 -0.038563
vn 0.999254 0.001998 -0.038563
vn 0.999254 0.001998 -0.038563
vn 0.996950 0.042947 -0.065167
vn 0.996950 0.042947 -0.065167
vn 0.996950 0.042947 -0.065167
vn 0.996950 0.042947 -0.065167
vn -0.996950 0.042947 -0.065167
vn -0.996950 0.042947 -0.065167
vn -0.996950 0.042947 -0.065167
vn -0.996950 0.042947 -0.065167
vn 0.998399 0.048823 -0.028564
vn 0.998399 0.048823 -0.028564
vn 0.998399 0.048823 -0.028564
vn -0.999540 0.008367 -0.029148
vn -0.999540 0.008367 -0.029148
vn -0.999332 0.022478 -0.028830
vn -0.999332 0.022478 -0.028830
vn -0.998891 0.037372 -0.028632
vn -0.998891 0.037372 -0.028632
vn 0.000000 0.008146 0.999967
vn 0.000000 0.008146 0.999967
vn 0.000000 -0.025243 0.999681
vn 0.000000 -0.025243 0.999681
vn 0.999540 0.008367 -0.029148
vn 0.999540 0.008367 -0.029148
vn 0.999332 0.022478 -0.028830
vn 0.999332 0.022478 -0.028830
vn -0.983486 -0.001238 -0.180981
vn -0.983486 -0.001238 -0.180981
vn -0.985945 0.021664 -0.165659
vn -0.985945 0.021664 -0.165659
vn 0.983486 -0.001238 -0.180982
vn 0.983486 -0.001238 -0.180982
vn 0.985945 0.021664 -0.165659
vn 0.985945 0.021664 -0.165659
vn -0.998399 0.048823 -0.028564
vn -0.999412 0.000772 -0.034278
vn -0.999412 0.000772 -0.034278
vn -0.999453 -0.000186 -0.033074
vn -0.999453 -0.000186 -0.033074
vn 0.000000 -0.059886 0.998205
vn 0.000000 -0.059886 0.998205
vn -0.000000 -0.000983 1.000000
vn -0.000000 -0.000983 1.000000
vn 0.999412 0.000772 -0.034278
vn 0.999412 0.000772 -0.034278
vn 0.999453 -0.000186 -0.033074
vn 0.999453 -0.000186 -0.033074
vn -0.960516 -0.012096 -0.277962
vn -0.960516 -0.012096 -0.277962
vn -0.960516 -0.012096 -0.277962
vn -0.960516 -0.012096 -0.277962
vn -0.965351 -0.009137 -0.260795
vn -0.965351 -0.009137 -0.260795
vn 0.960516 -0.012096 -0.277962
vn 0.960516 -0.012096 -0.277962
vn 0.965351 -0.009137 -0.260795
vn 0.965351 -0.009137 -0.260795
vn -0.942088 0.001027 -0.335366
vn -0.942088 0.001027 -0.335366
vn 0.937857 0.000000 -0.347021
vn 0.537855 0.000000 -0.843038
vn 0.537855 0.000000 -0.843038
vn 0.937857 0.000000 -0.347021
vn -0.537855 0.000000 -0.843037
vn -0.537855 0.000000 -0.843037
vn -0.937857 0.000000 -0.347021
vn -0.937857 0.000000 -0.347021
vn -1.000000 0.000000 0.000000
vn -1.000000 0.000000 0.000000
vn -0.937857 0.000000 0.347021
vn -0.937857 0.000000 0.347021
vn -0.537854 0.000000 0.843038
vn -0.537854 0.000000 0.843038
vn 0.537855 0.000000 0.843038
vn 0.537855 0.000000 0.843038
vn 0.937857 0.000000 0.347021
vn 0.937857 0.000000 0.347021
vn 1.000000 0.000000 0.000000
vn 1.000000 0.000000 0.000000
vn 0.000000 1.000000 -0.000001
vn 0.000000 1.000000 -0.000001
vn 0.000000 1.000000 -0.000001
vn 0.000000 1.000000 -0.000000
vn 0.000000 1.000000 -0.000000
vn 0.000000 1.000000 -0.000000
vn 0.000000 1.000000 0.000001
vn 0.000000 1.000000 0.000001
vn 0.000000 1.000000 0.000001
vn 0.000000 1.000000 0.000000
vn 0.000000 1.000000 0.000000
vn 0.000000 1.000000 0.000000
vn 0.000000 1.000000 0.000000
vn 0.000000 1.000000 0.000000
vn 0.000000 1.000000 0.000000
vn 0.000000 1.000000 0.000000
vn 0.000000 1.000000 0.000000
vn 0.000000 1.000000 0.000000
vn 0.000000 1.000000 0.000000
vn 0.000000 1.000000 0.000000
vn 0.000000 1.000000 0.000000
vn 0.000000 1.000000 0.000000
vn 0.000000 1.000000 0.000000
vn 0.000000 1.000000 0.000000
vn 0.000000 1.000000 0.000000
vn 0.000000 1.000000 0.000000
vn 0.000000 1.000000 0.000000
vn 0.000000 1.000000 0.000001
vn 0.000000 1.000000 0.000001
vn 0.000000 1.000000 0.000001
vn 0.035658 -0.994187 -0.101590
vn 0.151444 -0.984039 -0.093441
vn 0.230818 -0.970176 -0.074037
vn 0.066730 -0.992645 -0.101010
vn -0.035658 -0.994187 -0.101590
vn -0.066730 -0.992645 -0.101010
vn -0.151444 -0.984039 -0.093441
vn -0.230818 -0.970176 -0.074037
vn -0.300554 -0.953765 0.000000
vn -0.300554 -0.953765 -0.000000
vn -0.151444 -0.984039 0.093441
vn -0.230818 -0.970176 0.074037
vn -0.035658 -0.994187 0.101590
vn -0.066730 -0.992645 0.101010
vn 0.035658 -0.994187 0.101590
vn 0.066730 -0.992645 0.101010
vn 0.151444 -0.984039 0.093440
vn 0.230818 -0.970176 0.074037
vn 0.300554 -0.953765 0.000000
vn 0.300554 -0.953765 0.000000
vn 0.263827 -0.725784 -0.635322
vn 0.659054 -0.655313 -0.369071
vn 0.689103 -0.647184 -0.326023
vn 0.307659 -0.721272 -0.620574
vn -0.263827 -0.725784 -0.635322
vn -0.307659 -0.721272 -0.620574
vn -0.659054 -0.655312 -0.369071
vn -0.689103 -0.647183 -0.326023
vn -0.787038 -0.616905 0.000000
vn -0.787038 -0.616905 0.000000
vn -0.659054 -0.655312 0.369071
vn -0.689103 -0.647183 0.326023
vn -0.263827 -0.725784 0.635322
vn -0.307659 -0.721272 0.620574
vn 0.263827 -0.725783 0.635322
vn 0.307659 -0.721272 0.620574
vn 0.659054 -0.655312 0.369071
vn 0.689103 -0.647183 0.326024
vn 0.787038 -0.616905 0.000000
vn 0.787038 -0.616905 0.000000
vn 0.406825 -0.035724 -0.912807
vn 0.883465 -0.026764 -0.467731
vn 0.885222 -0.026710 -0.464402
vn 0.410185 -0.035688 -0.911304
vn -0.406825 -0.035724 -0.912807
vn -0.410185 -0.035688 -0.911304
vn -0.883466 -0.026764 -0.467731
vn -0.885222 -0.026710 -0.464402
vn -0.999738 -0.022878 0.000000
vn -0.999738 -0.022878 0.000000
vn -0.883465 -0.026764 0.467731
vn -0.885222 -0.026710 0.464402
vn -0.406825 -0.035724 0.912807
vn -0.410185 -0.035688 0.911304
vn 0.406825 -0.035724 0.912807
vn 0.410185 -0.035688 0.911304
vn 0.883465 -0.026764 0.467731
vn 0.885222 -0.026710 0.464402
vn 0.999738 -0.022878 0.000000
vn 0.999738 -0.022878 0.000000
vn -0.283350 0.641808 0.712597
vn -0.335111 0.634558 0.696446
vn -0.768746 0.518669 0.374182
vn -0.730192 0.534113 0.426079
vn 0.283351 0.641808 0.712597
vn 0.335111 0.634559 0.696445
vn 0.768746 0.518669 0.374182
vn 0.730192 0.534113 0.426078
vn 0.884516 0.466509 0.000000
vn 0.884516 0.466509 -0.000000
vn 0.283351 0.641810 -0.712596
vn 0.335111 0.634560 -0.696444
vn 0.768746 0.518669 -0.374182
vn 0.730192 0.534113 -0.426078
vn -0.283351 0.641810 -0.712595
vn -0.335112 0.634561 -0.696443
vn -0.768746 0.518669 -0.374181
vn -0.730192 0.534113 -0.426078
vn -0.884516 0.466510 0.000000
vn -0.884516 0.466510 -0.000000
vn 0.361208 -0.220479 -0.906045
vn 0.382556 -0.218820 -0.897646
vn -0.382555 -0.218820 -0.897646
vn -0.361207 -0.220479 -0.906045
vn -0.361207 -0.220479 0.906045
vn -0.382555 -0.218820 0.897646
vn 0.382556 -0.218820 0.897646
vn 0.361208 -0.220479 0.906045
vn 0.864648 -0.152743 0.478596
vn 0.851098 -0.155801 0.501356
vn 0.000000 -1.000000 -0.000020
vn 0.000000 -1.000000 -0.000020
vn 0.000000 -1.000000 -0.000020
vn 0.000000 -1.000000 0.000014
vn 0.000000 -1.000000 0.000014
vn 0.000000 -1.000000 0.000014
vn 0.851098 -0.155801 -0.501356
vn 0.864648 -0.152743 -0.478596
vn -0.864648 -0.152743 -0.478596
vn -0.851098 -0.155801 -0.501356
vn -0.992553 -0.121817 0.000000
vn -0.992553 -0.121817 0.000000
vn -0.851098 -0.155801 0.501356
vn -0.864648 -0.152743 0.478596
vn 0.992553 -0.121816 0.000000
vn 0.992553 -0.121816 0.000000
vn 0.000000 -1.000000 0.000000
vn 0.000000 -1.000000 0.000000
vn 0.000000 -1.000000 0.000000
vn 0.000000 -1.000000 0.000000
vn 0.000000 -1.000000 0.000000
vn 0.000000 -1.000000 0.000000
vn 0.000000 -1.000000 0.000000
vn 0.000000 -1.000000 0.000000
vn 0.000000 -1.000000 -0.000005
vn 0.000000 -1.000000 -0.000005
vn 0.000000 -1.000000 -0.000005
vn 0.000000 -1.000000 -0.000005
s 1
usemtl bakedSG
f 25/92/1 13/93/2 28/94/3 40/95/4
s 2
f 32/192/5 44/193/6 1/194/7 5/195/8
s 3
f 20/139/9 16/140/10 33/141/11 37/142/12
s 2
f 16/196/13 8/197/14 45/198/15 33/199/16
s 5
f 8/100/17 25/92/18 40/95/19 45/101/20
s 6
f 29/143/21 36/144/22 7/145/23 3/146/24
s 5
f 44/106/25 41/107/26 6/108/27 1/109/28
s 6
f 13/147/29 20/148/30 37/149/31 28/150/32
s 2
f 2/200/33 9/269/34 17/270/35
s 3
f 36/151/36 32/152/37 5/111/38 7/104/39
s 6
f 4/153/40 2/154/41 21/155/42 12/156/43
s 1
f 2/271/44 4/112/45 12/272/46 24/273/47
s 3
f 2/157/48 17/158/49 21/159/50
s 5
f 25/92/18 8/100/17 10/118/51 27/119/52
f 27/274/52 10/275/51 11/276/53 26/277/54
f 26/278/54 11/120/53 9/279/55 24/280/56
s 2
f 8/197/14 16/196/13 18/203/57 10/204/58
f 10/281/58 18/282/57 19/283/59 11/284/60
f 11/206/60 19/205/59 17/202/35 9/201/34
s 3
f 16/97/10 20/160/9 22/161/61 18/162/62
f 18/124/62 22/163/61 23/164/63 19/165/64
f 19/126/64 23/166/63 21/167/50 17/117/49
s 1
f 13/93/2 25/92/1 27/119/65 15/127/66
f 15/285/66 27/286/65 26/287/67 14/288/68
f 14/128/68 26/121/67 24/289/47 12/115/46
s 6
f 20/96/30 13/168/29 15/169/69 22/170/70
f 22/123/70 15/171/69 14/172/71 23/173/72
f 23/125/72 14/174/71 12/175/43 21/114/42
s 5
f 2/113/73 24/116/56 9/122/55
f 41/107/26 44/106/25 46/129/74 43/130/75
f 43/130/75 46/129/74 47/131/76 42/132/77
f 42/132/77 47/131/76 45/101/20 40/95/19
s 2
f 44/193/6 32/192/5 34/207/78 46/208/79
f 46/208/79 34/207/78 35/209/80 47/210/81
f 47/210/81 35/209/80 33/199/16 45/198/15
s 3
f 32/110/37 36/176/36 38/177/82 34/178/83
f 34/134/83 38/179/82 39/180/84 35/181/85
f 35/136/85 39/182/84 37/183/12 33/98/11
s 1
f 29/102/86 41/107/87 43/130/88 31/137/89
f 31/137/89 43/130/88 42/132/90 30/138/91
f 30/138/91 42/132/90 40/95/4 28/94/3
s 6
f 36/103/22 29/184/21 31/185/92 38/186/93
f 38/133/93 31/187/92 30/188/94 39/189/95
f 39/135/95 30/190/94 28/191/32 37/99/31
s 1
f 41/107/87 29/102/86 3/105/96 6/108/97
s 15
f 48/1/98 49/3/99 59/4/100 58/5/101
f 49/246/99 50/247/102 60/248/103 59/2/100
f 50/6/102 51/263/104 61/264/105 60/9/103
f 51/7/104 52/265/106 62/266/107 61/8/105
f 52/10/106 53/267/108 63/268/109 62/11/107
f 53/16/108 54/18/110 64/19/111 63/17/109
f 54/12/110 55/14/112 65/15/113 64/13/111
f 55/257/112 56/258/114 66/259/115 65/260/113
f 56/258/114 57/261/116 67/262/117 66/259/115
f 57/261/116 48/1/98 58/5/101 67/262/117
s off
f 58/21/118 59/22/119 68/23/120
f 59/22/121 60/24/122 68/23/123
f 60/24/124 61/25/125 68/23/126
f 61/25/127 62/26/128 68/23/129
f 62/26/130 63/27/131 68/23/132
f 63/27/133 64/28/134 68/23/135
f 64/28/136 65/29/137 68/23/138
f 65/29/139 66/30/140 68/23/141
f 66/30/142 67/31/143 68/23/144
f 67/31/145 58/21/146 68/23/147
s 16
f 49/32/148 48/33/149 69/34/150 70/35/151
f 50/36/152 49/32/148 70/35/151 71/37/153
f 51/38/154 50/36/152 71/37/153 72/39/155
f 52/40/156 51/38/154 72/39/155 73/41/157
f 53/42/158 52/40/156 73/41/157 74/43/159
f 54/44/160 53/42/158 74/43/159 75/45/161
f 55/46/162 54/44/160 75/45/161 76/47/163
f 56/48/164 55/46/162 76/47/163 77/49/165
f 57/50/166 56/48/164 77/49/165 78/51/167
f 48/33/149 57/50/166 78/51/167 69/34/150
s 17
f 70/35/168 69/34/169 79/52/170 80/53/171
f 71/37/172 70/35/168 80/53/171 81/54/173
f 72/39/174 71/37/172 81/54/173 82/55/175
f 73/41/176 72/39/174 82/55/175 83/56/177
f 74/43/178 73/41/176 83/56/177 84/57/179
f 75/45/180 74/43/178 84/57/179 85/58/181
f 76/47/182 75/45/180 85/58/181 86/59/183
f 77/49/184 76/47/182 86/59/183 87/60/185
f 78/51/186 77/49/184 87/60/185 88/61/187
f 69/34/169 78/51/186 88/61/187 79/52/170
s 18
f 80/250/188 79/20/189 89/211/190 90/251/191
f 81/249/192 80/250/188 90/251/191 91/252/193
f 82/214/194 81/212/192 91/213/193 92/215/195
f 83/216/196 82/214/194 92/215/195 93/217/197
f 84/218/198 83/216/196 93/217/197 94/219/199
f 85/220/200 84/218/198 94/219/199 95/221/201
f 86/222/202 85/220/200 95/221/201 96/223/203
f 87/224/204 86/222/202 96/223/203 97/225/205
f 88/226/206 87/224/204 97/225/205 98/227/207
f 79/20/189 88/226/206 98/227/207 89/211/190
s 19
f 105/62/208 95/63/209 94/64/210 104/65/211
f 105/62/208 106/66/212 96/67/213 95/63/209
f 97/68/214 96/67/213 106/66/212 107/69/215
f 98/70/216 97/68/214 107/69/215 108/71/217
f 100/72/218 90/73/219 89/74/220 99/75/221
f 101/76/222 91/77/223 90/73/219 100/72/218
f 92/78/224 91/77/223 101/76/222 102/79/225
f 93/80/226 92/78/224 102/79/225 103/81/227
f 104/65/211 94/64/210 93/80/226 103/81/227
f 99/75/221 89/74/220 98/70/216 108/71/217
s 21
f 100/256/228 110/253/229 111/254/230 101/255/231
f 105/230/232 115/231/233 116/232/234 106/233/235
f 117/234/236 107/235/237 106/233/235 116/232/234
s off
f 115/82/238 117/83/239 116/84/240
f 118/85/241 112/86/242 109/87/243
s 21
f 100/256/228 99/236/244 109/237/245 110/253/229
f 112/238/246 102/239/247 101/229/231 111/228/230
f 113/240/248 103/241/249 102/239/247 112/238/246
f 104/242/250 103/241/249 113/240/248 114/243/251
f 105/230/232 104/242/250 114/243/251 115/231/233
f 118/244/252 108/245/253 107/235/237 117/234/236
f 99/236/244 108/245/253 118/244/252 109/237/245
s off
f 115/82/254 114/88/255 118/85/256 117/83/257
f 110/89/258 109/87/259 112/86/260 111/90/261
f 112/86/262 118/85/263 114/88/264 113/91/265
